<mxfile host="Electron" modified="2023-11-24T17:00:58.924Z" agent="Mozilla/5.0 (Macintosh; Intel Mac OS X 10_15_7) AppleWebKit/537.36 (KHTML, like Gecko) draw.io/22.1.2 Chrome/114.0.5735.289 Electron/25.9.4 Safari/537.36" etag="3PZaNgoEKbI566hRFEX2" version="22.1.2" type="device">
  <diagram name="Сторінка-1" id="0liA8Ej3YOuRwNBv2-SD">
    <mxGraphModel dx="1224" dy="794" grid="1" gridSize="10" guides="1" tooltips="1" connect="1" arrows="1" fold="1" page="1" pageScale="1" pageWidth="827" pageHeight="1169" math="0" shadow="0">
      <root>
        <mxCell id="0" />
        <mxCell id="1" parent="0" />
        <mxCell id="WDut6IQsrc23tSPN2Qs--3" value="" style="edgeStyle=orthogonalEdgeStyle;rounded=0;orthogonalLoop=1;jettySize=auto;html=1;" parent="1" source="WDut6IQsrc23tSPN2Qs--1" target="WDut6IQsrc23tSPN2Qs--2" edge="1">
          <mxGeometry relative="1" as="geometry" />
        </mxCell>
        <mxCell id="WDut6IQsrc23tSPN2Qs--1" value="Start" style="ellipse;whiteSpace=wrap;html=1;" parent="1" vertex="1">
          <mxGeometry x="70" y="150" width="120" height="70" as="geometry" />
        </mxCell>
        <mxCell id="WDut6IQsrc23tSPN2Qs--5" value="" style="edgeStyle=orthogonalEdgeStyle;rounded=0;orthogonalLoop=1;jettySize=auto;html=1;" parent="1" source="WDut6IQsrc23tSPN2Qs--2" target="WDut6IQsrc23tSPN2Qs--4" edge="1">
          <mxGeometry relative="1" as="geometry" />
        </mxCell>
        <mxCell id="WDut6IQsrc23tSPN2Qs--2" value="Input name, principal, rate, number, time" style="shape=parallelogram;perimeter=parallelogramPerimeter;whiteSpace=wrap;html=1;fixedSize=1;" parent="1" vertex="1">
          <mxGeometry x="35" y="250" width="190" height="60" as="geometry" />
        </mxCell>
        <mxCell id="WDut6IQsrc23tSPN2Qs--7" value="" style="edgeStyle=orthogonalEdgeStyle;rounded=0;orthogonalLoop=1;jettySize=auto;html=1;" parent="1" source="WDut6IQsrc23tSPN2Qs--4" target="WDut6IQsrc23tSPN2Qs--6" edge="1">
          <mxGeometry relative="1" as="geometry" />
        </mxCell>
        <mxCell id="WDut6IQsrc23tSPN2Qs--4" value="sum = principal" style="rounded=0;whiteSpace=wrap;html=1;" parent="1" vertex="1">
          <mxGeometry x="70" y="330" width="120" height="60" as="geometry" />
        </mxCell>
        <mxCell id="WDut6IQsrc23tSPN2Qs--10" value="" style="edgeStyle=orthogonalEdgeStyle;rounded=0;orthogonalLoop=1;jettySize=auto;html=1;" parent="1" source="WDut6IQsrc23tSPN2Qs--6" target="WDut6IQsrc23tSPN2Qs--8" edge="1">
          <mxGeometry relative="1" as="geometry" />
        </mxCell>
        <mxCell id="WDut6IQsrc23tSPN2Qs--14" value="" style="edgeStyle=orthogonalEdgeStyle;rounded=0;orthogonalLoop=1;jettySize=auto;html=1;" parent="1" source="WDut6IQsrc23tSPN2Qs--6" target="WDut6IQsrc23tSPN2Qs--13" edge="1">
          <mxGeometry relative="1" as="geometry" />
        </mxCell>
        <mxCell id="WDut6IQsrc23tSPN2Qs--6" value="for i=0,&lt;br&gt;&amp;nbsp;i&amp;lt;number*time" style="rhombus;whiteSpace=wrap;html=1;" parent="1" vertex="1">
          <mxGeometry x="60" y="430" width="140" height="100" as="geometry" />
        </mxCell>
        <mxCell id="WDut6IQsrc23tSPN2Qs--11" style="edgeStyle=orthogonalEdgeStyle;rounded=0;orthogonalLoop=1;jettySize=auto;html=1;" parent="1" edge="1">
          <mxGeometry relative="1" as="geometry">
            <mxPoint x="130" y="410" as="targetPoint" />
            <mxPoint x="360" y="465" as="sourcePoint" />
            <Array as="points">
              <mxPoint x="360" y="410" />
              <mxPoint x="190" y="410" />
            </Array>
          </mxGeometry>
        </mxCell>
        <mxCell id="WDut6IQsrc23tSPN2Qs--8" value="sum=sum*(1+rate/100)" style="rounded=0;whiteSpace=wrap;html=1;" parent="1" vertex="1">
          <mxGeometry x="280" y="450" width="180" height="60" as="geometry" />
        </mxCell>
        <mxCell id="WDut6IQsrc23tSPN2Qs--12" value="i++" style="text;html=1;strokeColor=none;fillColor=none;align=center;verticalAlign=middle;whiteSpace=wrap;rounded=0;" parent="1" vertex="1">
          <mxGeometry x="230" y="370" width="60" height="30" as="geometry" />
        </mxCell>
        <mxCell id="WDut6IQsrc23tSPN2Qs--16" value="" style="edgeStyle=orthogonalEdgeStyle;rounded=0;orthogonalLoop=1;jettySize=auto;html=1;" parent="1" source="WDut6IQsrc23tSPN2Qs--13" target="WDut6IQsrc23tSPN2Qs--15" edge="1">
          <mxGeometry relative="1" as="geometry" />
        </mxCell>
        <mxCell id="WDut6IQsrc23tSPN2Qs--13" value="sum = sum - principal" style="whiteSpace=wrap;html=1;" parent="1" vertex="1">
          <mxGeometry x="70" y="550" width="120" height="60" as="geometry" />
        </mxCell>
        <mxCell id="WDut6IQsrc23tSPN2Qs--18" value="" style="edgeStyle=orthogonalEdgeStyle;rounded=0;orthogonalLoop=1;jettySize=auto;html=1;" parent="1" source="WDut6IQsrc23tSPN2Qs--15" target="WDut6IQsrc23tSPN2Qs--17" edge="1">
          <mxGeometry relative="1" as="geometry" />
        </mxCell>
        <mxCell id="WDut6IQsrc23tSPN2Qs--15" value="Output sum" style="shape=parallelogram;perimeter=parallelogramPerimeter;whiteSpace=wrap;html=1;fixedSize=1;" parent="1" vertex="1">
          <mxGeometry x="70" y="630" width="120" height="60" as="geometry" />
        </mxCell>
        <mxCell id="WDut6IQsrc23tSPN2Qs--17" value="End" style="ellipse;whiteSpace=wrap;html=1;" parent="1" vertex="1">
          <mxGeometry x="70" y="710" width="120" height="80" as="geometry" />
        </mxCell>
      </root>
    </mxGraphModel>
  </diagram>
</mxfile>
